<svg width="24" height="24" viewBox="0 0 24 24" fill="none" xmlns="http://www.w3.org/2000/svg">
<path fill-rule="evenodd" clip-rule="evenodd" d="M19.8299 6.394C19.7287 6.57578 19.5917 6.73395 19.4275 6.85844C19.2633 6.98292 19.0756 7.07098 18.8764 7.117C18.5028 7.26538 18.1121 7.36385 17.7139 7.41C17.2435 7.47667 16.7288 7.52233 16.1699 7.547L13.8822 7.703L10.8331 9.185C10.7768 9.22988 10.709 9.25699 10.6379 9.263L9.65019 9.185C9.57235 9.1896 9.49467 9.17362 9.4246 9.1386C9.35452 9.10358 9.29441 9.05068 9.25003 8.985C9.2063 8.92304 9.18116 8.84936 9.1777 8.77298C9.17423 8.6966 9.19258 8.62085 9.23051 8.555L9.65019 7.422V7.312L9.61213 7.234L5.49436 7C5.39058 6.99618 5.29148 6.95481 5.21465 6.88323C5.13782 6.81165 5.08823 6.71449 5.07468 6.609L4.04499 2.625C4.00756 2.56699 3.99271 2.4967 4.00337 2.42802C4.01403 2.35934 4.04943 2.29725 4.10258 2.254C4.14818 2.2011 4.20379 2.15824 4.26602 2.12799C4.32826 2.09774 4.39584 2.08073 4.46468 2.078L6.10437 2C6.18235 2.00159 6.25858 2.02401 6.32551 2.06505C6.39245 2.10609 6.44776 2.16433 6.48598 2.234L7.70989 4.265H7.78602L16.2499 4.304C17.2014 4.21506 18.1606 4.32112 19.0716 4.616C19.3491 4.69242 19.596 4.85653 19.7772 5.085C19.8741 5.22717 19.9451 5.38604 19.9871 5.554C20.0276 5.84412 19.9723 6.13979 19.8299 6.394ZM19.0296 5.964C19.0788 5.88508 19.1172 5.79961 19.1438 5.71C19.0444 5.61922 18.9273 5.55105 18.8002 5.51C17.9698 5.27265 17.1064 5.18036 16.246 5.237H7.78212C7.61296 5.26465 7.43958 5.23737 7.28631 5.159C7.13088 5.07843 6.99917 4.95694 6.90469 4.807L5.79887 3.007H5.03661L5.875 6.132L9.64921 6.288L9.91567 6.366C10.1531 6.45036 10.3639 6.59893 10.5257 6.796C10.613 6.95035 10.659 7.12559 10.659 7.304C10.659 7.48241 10.613 7.65765 10.5257 7.812L10.3305 8.32H10.5589L13.3044 6.992C13.3693 6.92572 13.4468 6.87377 13.532 6.83937C13.6173 6.80497 13.7086 6.78885 13.8002 6.792L16.126 6.753C16.9261 6.71707 17.7194 6.58586 18.4899 6.362C18.7058 6.28905 18.8948 6.15017 19.0316 5.964H19.0296ZM19.0101 14.985C19.2908 15.3189 19.458 15.7373 19.4864 16.177V18.989C19.4869 19.4029 19.3747 19.8088 19.1623 20.161C19.0557 20.3404 18.9139 20.4952 18.7459 20.6157C18.5779 20.7362 18.3874 20.8197 18.1863 20.861V21.486C18.196 21.555 18.1898 21.6254 18.1683 21.6915C18.1467 21.7576 18.1105 21.8177 18.0624 21.867C18.0143 21.9163 17.9556 21.9534 17.8911 21.9755C17.8265 21.9975 17.7579 22.0039 17.6905 21.994C17.6252 21.9986 17.5597 21.9868 17.4999 21.9596C17.44 21.9325 17.3875 21.8907 17.347 21.838C17.2718 21.7369 17.2316 21.6131 17.2328 21.486V20.866H7.21018V21.491C7.21326 21.5605 7.2012 21.6299 7.17486 21.6941C7.14853 21.7583 7.10858 21.8156 7.05792 21.862C6.96416 21.9501 6.84158 21.999 6.71437 21.999C6.65025 21.9953 6.58764 21.9776 6.5307 21.9472C6.47375 21.9167 6.42378 21.8742 6.38409 21.8225C6.3444 21.7708 6.31589 21.711 6.30048 21.6471C6.28507 21.5832 6.28309 21.5167 6.29469 21.452V20.827C5.8293 20.7447 5.4018 20.512 5.07468 20.163C4.90995 20.009 4.77764 19.8221 4.68584 19.6139C4.59404 19.4057 4.54468 19.1804 4.5408 18.952V16.14C4.54598 15.9108 4.59983 15.6856 4.6986 15.4799C4.79737 15.2742 4.9387 15.093 5.11274 14.949C5.47144 14.6487 5.90955 14.4652 6.37081 14.422L6.98081 12.122C7.05538 11.682 7.29499 11.2894 7.64841 11.028C7.9933 10.7506 8.41226 10.5871 8.84986 10.559L15.4457 10.52C15.8949 10.5169 16.3294 10.6839 16.6657 10.989C17.0074 11.2807 17.2472 11.6784 17.3489 12.122L17.9589 14.422C18.3614 14.4825 18.7319 14.681 19.0101 14.985ZM7.28631 14.419H16.9702L16.4364 12.385C16.3826 12.1499 16.2555 11.9393 16.0743 11.785C15.8993 11.6232 15.6797 11.5209 15.4457 11.492L8.84986 11.57C8.61449 11.5722 8.3865 11.6545 8.2018 11.804C8.0083 11.9443 7.87236 12.1531 7.82018 12.39L7.28631 14.419ZM18.4948 16.179C18.5091 16.0162 18.4751 15.8527 18.3972 15.71C18.3353 15.5964 18.2434 15.5031 18.132 15.4408C18.0206 15.3786 17.8943 15.3498 17.7676 15.358H6.48598C6.22842 15.3852 5.9837 15.4868 5.78033 15.651C5.68998 15.7069 5.61362 15.7837 5.55737 15.8752C5.50111 15.9667 5.4665 16.0704 5.4563 16.178V18.99C5.45745 19.1215 5.48712 19.2511 5.54316 19.3694C5.5992 19.4877 5.68021 19.5917 5.78033 19.674C5.97477 19.8592 6.22213 19.9756 6.48598 20.006H17.7706C17.8842 20.0002 17.9946 19.9648 18.0912 19.9032C18.1879 19.8417 18.2676 19.7559 18.323 19.654C18.4359 19.4518 18.4951 19.2229 18.4948 18.99V16.179ZM7.21018 17.312C7.28271 17.2375 7.36889 17.1783 7.46377 17.138C7.55865 17.0976 7.66036 17.0769 7.76309 17.0769C7.86581 17.0769 7.96753 17.0976 8.06241 17.138C8.15729 17.1783 8.24346 17.2375 8.31599 17.312C8.46358 17.4851 8.54491 17.7071 8.54491 17.937C8.54491 18.1668 8.46358 18.3889 8.31599 18.562C8.24346 18.6365 8.15729 18.6957 8.06241 18.736C7.96753 18.7764 7.86581 18.7971 7.76309 18.7971C7.66036 18.7971 7.55865 18.7764 7.46377 18.736C7.36889 18.6957 7.28271 18.6365 7.21018 18.562C7.06259 18.3889 6.98126 18.1668 6.98126 17.937C6.98126 17.7071 7.06259 17.4851 7.21018 17.312ZM15.9786 17.312C16.1327 17.1614 16.3376 17.0773 16.5505 17.0773C16.7635 17.0773 16.9684 17.1614 17.1225 17.312C17.2701 17.4851 17.3514 17.7071 17.3514 17.937C17.3514 18.1668 17.2701 18.3889 17.1225 18.562C16.9683 18.7124 16.7635 18.7963 16.5505 18.7963C16.3376 18.7963 16.1328 18.7124 15.9786 18.562C15.831 18.3889 15.7497 18.1668 15.7497 17.937C15.7497 17.7071 15.831 17.4851 15.9786 17.312ZM13.8441 17.683C13.8923 17.7313 13.9306 17.789 13.9568 17.8528C13.9829 17.9165 13.9964 17.9849 13.9964 18.054C13.9964 18.1231 13.9829 18.1915 13.9568 18.2552C13.9306 18.319 13.8923 18.3767 13.8441 18.425C13.7504 18.5133 13.6278 18.5622 13.5005 18.562H10.8653C10.7988 18.5676 10.7319 18.5583 10.6693 18.5348C10.6067 18.5112 10.5498 18.474 10.5026 18.4256C10.4554 18.3773 10.4191 18.319 10.3961 18.2548C10.3731 18.1907 10.364 18.1221 10.3695 18.054C10.3867 17.9147 10.4469 17.7847 10.5413 17.683C10.5833 17.6387 10.6337 17.6037 10.6895 17.5801C10.7452 17.5565 10.805 17.5449 10.8653 17.546H13.5005C13.628 17.5467 13.7506 17.5963 13.8441 17.685V17.683Z" fill="#77DADA"/>
</svg>
