<svg width="24" height="24" viewBox="0 0 24 24" fill="none" xmlns="http://www.w3.org/2000/svg">
<path fill-rule="evenodd" clip-rule="evenodd" d="M21.8418 12.079C21.8909 12.1245 21.9302 12.1794 21.9574 12.2404C21.9846 12.3015 21.999 12.3674 22 12.4342C22.0014 12.5628 21.9596 12.6882 21.8813 12.7904C21.8456 12.8406 21.7981 12.8812 21.7429 12.9088C21.6878 12.9363 21.6267 12.9499 21.565 12.9483H21.2446V14.2132C21.2502 15.1065 21.0821 15.9924 20.7498 16.8219C20.4334 17.616 19.9846 18.3509 19.4227 18.9956L19.8982 19.8254C20.01 19.9694 20.0891 20.1359 20.13 20.3134C20.171 20.4909 20.1728 20.6752 20.1354 20.8535C20.0496 21.2056 19.8384 21.5145 19.5413 21.7227C19.3251 21.8902 19.0624 21.987 18.789 22L18.3926 21.9211C18.2189 21.876 18.0559 21.7969 17.9131 21.6883C17.7704 21.5797 17.6508 21.4438 17.5612 21.2886L17.2074 20.6582C16.2647 21.1019 15.2392 21.3433 14.1971 21.3665H10.0788C9.03664 21.3443 8.01091 21.1029 7.06857 20.6582L6.59305 21.2906C6.50294 21.4458 6.37679 21.5771 6.22523 21.6734C6.07366 21.7697 5.90111 21.8283 5.72213 21.8442H5.4058C5.09296 21.8368 4.79132 21.7264 4.54782 21.5302C4.30432 21.334 4.1326 21.063 4.05937 20.7594C4.02123 20.5801 4.01953 20.3951 4.05436 20.2152C4.08919 20.0353 4.15985 19.8642 4.26215 19.712L4.85628 19.0796C3.65398 17.7605 2.98993 16.04 2.9948 14.2567V12.9877H2.43514C2.37533 12.9901 2.31576 12.9788 2.26095 12.9548C2.20615 12.9308 2.15753 12.8947 2.1188 12.8491C2.0391 12.7555 1.99686 12.6359 2.00018 12.5131C2.00001 12.3812 2.0496 12.254 2.13908 12.1569C2.17987 12.1073 2.23125 12.0673 2.28949 12.04C2.34773 12.0127 2.41135 11.9987 2.47569 11.9991H19.0293L19.1084 5.16044C19.0798 4.67991 18.9226 4.21584 18.6532 3.81659C18.5409 3.62397 18.3828 3.4619 18.1929 3.34471C18.003 3.22752 17.7871 3.15882 17.5642 3.14467H16.891C16.5764 3.13399 16.2703 3.24784 16.0394 3.46141C15.8044 3.68988 15.6337 3.97606 15.5446 4.29119H16.0596C16.439 4.27672 16.8086 4.4128 17.0877 4.66965C17.2216 4.80088 17.3261 4.95889 17.3944 5.13329C17.4627 5.30769 17.4933 5.49455 17.4842 5.68158C17.4907 6.07841 17.3494 6.46353 17.0877 6.76233C16.9472 6.91691 16.7761 7.04063 16.5852 7.12565C16.3942 7.21066 16.1876 7.2551 15.9785 7.25615H13.5645C13.3654 7.24804 13.1699 7.20015 12.9897 7.11533C12.8094 7.03051 12.6481 6.91048 12.5151 6.76233C12.3798 6.61748 12.2764 6.44592 12.2116 6.25872C12.1468 6.07152 12.1221 5.87285 12.139 5.67551C12.1537 5.27767 12.3245 4.90153 12.6145 4.62816C12.7378 4.49991 12.8853 4.39724 13.0485 4.32604C13.2117 4.25485 13.3874 4.21652 13.5655 4.21327L14.478 4.13434C14.6081 3.55418 14.8958 3.02098 15.3094 2.59317C15.4938 2.4024 15.7155 2.25136 15.9606 2.14937C16.2058 2.04739 16.4693 1.99661 16.7349 2.00018H17.6474C18.0128 2.01866 18.3686 2.12319 18.6858 2.30523C19.003 2.48726 19.2725 2.74162 19.4724 3.04753C19.912 3.66151 20.1222 4.40984 20.0665 5.16246L19.9874 11.9222H21.492C21.5578 11.9238 21.6227 11.9385 21.6827 11.9654C21.7428 11.9923 21.7969 12.031 21.8418 12.079ZM13.6405 5.24038C13.5083 5.24021 13.3809 5.28971 13.2836 5.37902C13.231 5.42591 13.1894 5.48395 13.1621 5.54889C13.1347 5.61384 13.1222 5.68406 13.1255 5.75444C13.1232 5.82769 13.1361 5.90062 13.1633 5.96869C13.1906 6.03676 13.2315 6.09851 13.2836 6.15011C13.3291 6.19944 13.3842 6.23891 13.4456 6.26607C13.507 6.29322 13.5734 6.30749 13.6405 6.30797H16.0566C16.1229 6.3073 16.188 6.29077 16.2466 6.25979C16.3052 6.2288 16.3555 6.18425 16.3932 6.12987C16.4856 6.01144 16.5346 5.86504 16.5321 5.71498C16.5371 5.64902 16.5272 5.5828 16.5031 5.52117C16.4791 5.45953 16.4415 5.40405 16.3932 5.35878C16.2994 5.2794 16.1796 5.23726 16.0566 5.24038H13.6405ZM6.1581 20.1036L5.52442 19.5896L5.08846 20.2615C5.03362 20.3581 5.01543 20.4712 5.03721 20.58C5.05899 20.6889 5.11929 20.7863 5.20708 20.8545C5.25894 20.8803 5.31553 20.8954 5.3734 20.8987C5.43127 20.902 5.48922 20.8935 5.54369 20.8737C5.63873 20.847 5.72667 20.7997 5.80122 20.7351L6.1581 20.1036ZM19.1084 20.2615L18.6329 19.5896C18.4503 19.7934 18.2364 19.967 17.9992 20.1036L18.3956 20.7361C18.4215 20.7878 18.4609 20.8316 18.5096 20.8629C18.5583 20.8943 18.6145 20.912 18.6724 20.9142C18.7201 20.9249 18.7695 20.9252 18.8172 20.9151C18.865 20.905 18.91 20.8846 18.9492 20.8555C19.0464 20.7954 19.1168 20.7006 19.1462 20.5904C19.1756 20.4801 19.1617 20.3628 19.1074 20.2625L19.1084 20.2615ZM18.4352 18.5028C18.9958 17.9388 19.4386 17.2693 19.7378 16.533C20.037 15.7968 20.1866 15.0086 20.178 14.2142V12.8299H3.93974V14.2132C3.9433 15.0083 4.10441 15.7949 4.41379 16.5276C4.72317 17.2603 5.17471 17.9247 5.74241 18.4825C6.88621 19.6139 8.42888 20.2526 10.0392 20.2615H14.1586C14.9534 20.2708 15.7418 20.1198 16.4767 19.8176C17.2115 19.5154 17.8777 19.0682 18.4352 18.5028ZM12.7524 8.46237C12.8765 8.34758 13.0394 8.2838 13.2086 8.2838C13.3778 8.2838 13.5408 8.34758 13.6649 8.46237C13.779 8.57836 13.8429 8.73443 13.8429 8.897C13.8429 9.05956 13.779 9.21563 13.6649 9.33162C13.5762 9.42305 13.462 9.48567 13.3372 9.51132C13.2123 9.53696 13.0826 9.52443 12.9651 9.47536C12.8475 9.42629 12.7474 9.34296 12.678 9.23626C12.6086 9.12956 12.573 9.00445 12.576 8.87727C12.5755 8.79976 12.5909 8.72298 12.6212 8.65163C12.6516 8.58029 12.6962 8.51588 12.7524 8.46237ZM14.2174 8.46237C14.3034 8.37724 14.4127 8.31942 14.5316 8.29619C14.6504 8.27296 14.7735 8.28537 14.8853 8.33185C14.9971 8.37833 15.0926 8.4568 15.1598 8.55737C15.227 8.65795 15.2628 8.77612 15.2628 8.897C15.2628 9.01788 15.227 9.13605 15.1598 9.23662C15.0926 9.3372 14.9971 9.41567 14.8853 9.46215C14.7735 9.50863 14.6504 9.52104 14.5316 9.49781C14.4127 9.47458 14.3034 9.41676 14.2174 9.33162C14.1582 9.27204 14.1118 9.201 14.0811 9.12286C14.0505 9.04472 14.0361 8.96114 14.039 8.87727C14.0388 8.79961 14.0545 8.72274 14.0852 8.65139C14.1159 8.58003 14.1609 8.51571 14.2174 8.46237ZM12.5547 9.96408C12.6609 9.84946 12.8039 9.77547 12.9589 9.75489C13.114 9.73431 13.2714 9.76843 13.4039 9.85136C13.5365 9.93429 13.6358 10.0608 13.6848 10.2091C13.7338 10.3574 13.7294 10.5181 13.6723 10.6634C13.6152 10.8088 13.5091 10.9297 13.3722 11.0052C13.2353 11.0808 13.0762 11.1062 12.9225 11.0771C12.7688 11.0481 12.6301 10.9664 12.5304 10.8461C12.4306 10.7258 12.3761 10.5746 12.3762 10.4184C12.3733 10.3346 12.3877 10.251 12.4184 10.1728C12.4491 10.0947 12.4954 10.0237 12.5547 9.96408ZM14.2184 9.96408C14.3347 9.85018 14.491 9.78636 14.6539 9.78636C14.8168 9.78636 14.9731 9.85018 15.0894 9.96408C15.2044 10.0879 15.2683 10.2506 15.2683 10.4194C15.2683 10.5883 15.2044 10.751 15.0894 10.8748C14.9731 10.9887 14.8168 11.0525 14.6539 11.0525C14.491 11.0525 14.3347 10.9887 14.2184 10.8748C14.1033 10.7511 14.0392 10.5885 14.039 10.4196C14.0388 10.2508 14.1036 10.0881 14.2184 9.96408ZM15.8407 9.96408C15.9469 9.84946 16.0899 9.77547 16.2449 9.75489C16.4 9.73431 16.5574 9.76843 16.6899 9.85136C16.8225 9.93429 16.9218 10.0608 16.9708 10.2091C17.0198 10.3574 17.0154 10.5181 16.9583 10.6634C16.9012 10.8088 16.795 10.9297 16.6581 11.0052C16.5212 11.0808 16.3622 11.1062 16.2085 11.0771C16.0548 11.0481 15.9161 10.9664 15.8164 10.8461C15.7166 10.7258 15.6621 10.5746 15.6622 10.4184C15.6595 10.3345 15.674 10.2509 15.7048 10.1727C15.7357 10.0946 15.7812 10.0236 15.8407 9.96408ZM15.6034 8.46237C15.7275 8.34758 15.8904 8.2838 16.0596 8.2838C16.2288 8.2838 16.3918 8.34758 16.5159 8.46237C16.63 8.57836 16.694 8.73443 16.694 8.897C16.694 9.05956 16.63 9.21563 16.5159 9.33162C16.4273 9.42305 16.3131 9.48567 16.1882 9.51132C16.0634 9.53696 15.9337 9.52443 15.8161 9.47536C15.6985 9.42629 15.5984 9.34296 15.529 9.23626C15.4596 9.12956 15.424 9.00445 15.427 8.87727C15.4265 8.79976 15.4419 8.72298 15.4723 8.65163C15.5026 8.58029 15.5472 8.51588 15.6034 8.46237Z" fill="#77DADA"/>
</svg>
