<svg width="24" height="24" viewBox="0 0 24 24" fill="none" xmlns="http://www.w3.org/2000/svg">
<path fill-rule="evenodd" clip-rule="evenodd" d="M19.049 4.92106C20.9332 6.80774 21.994 9.3687 21.998 12.0407C21.9956 13.3517 21.7337 14.6492 21.2274 15.8577C20.7211 17.0661 19.9806 18.1614 19.049 19.0799C17.1754 20.9502 14.6409 22 11.999 22C9.35714 22 6.82263 20.9502 4.949 19.0799C4.01699 18.1613 3.27627 17.0657 2.76999 15.8568C2.2637 14.648 2.00196 13.3501 2 12.0387C2.00382 9.36763 3.06384 6.80745 4.947 4.92106C6.82071 3.05017 9.35566 2 11.998 2C14.6403 2 17.1753 3.05017 19.049 4.92106ZM18.365 18.3971C19.2032 17.5682 19.8668 16.5785 20.3163 15.4868C20.7659 14.3952 20.9923 13.2239 20.982 12.0427C20.9912 10.8469 20.7647 9.66116 20.3156 8.55369C19.8664 7.44622 19.2035 6.43893 18.365 5.58985C17.5331 4.74455 16.5413 4.07483 15.4478 3.62008C14.3544 3.16533 13.1815 2.93473 11.998 2.94184C9.62014 2.92212 7.33061 3.84558 5.627 5.51152C4.78534 6.34199 4.11963 7.3348 3.6699 8.43027C3.22017 9.52573 2.9957 10.7012 3.01 11.886C2.99679 13.0852 3.22137 14.275 3.67067 15.3861C4.11997 16.4973 4.785 17.5075 5.627 18.3579C7.32285 20.0369 9.60657 20.9814 11.988 20.9887C14.3695 20.996 16.6589 20.0656 18.365 18.3971ZM15.474 7.31602C16.0786 7.94402 16.4271 8.77657 16.451 9.64972V10.0022C16.4546 10.428 16.3736 10.8503 16.2128 11.2443C16.0519 11.6383 15.8143 11.9961 15.514 12.2967C14.9071 12.8886 14.0941 13.2194 13.248 13.2186H10.318V17.6902C10.3205 17.7561 10.3087 17.8218 10.2835 17.8827C10.2583 17.9436 10.2202 17.9983 10.172 18.0431C10.1237 18.0878 10.0663 18.1215 10.0039 18.1419C9.94138 18.1623 9.87525 18.1688 9.81 18.1611C9.7421 18.1647 9.67417 18.1544 9.61038 18.1307C9.54659 18.1071 9.48827 18.0706 9.439 18.0235C9.39459 17.9804 9.35951 17.9285 9.33594 17.8712C9.31237 17.8138 9.30082 17.7522 9.302 17.6902V6.86515C9.3155 6.76171 9.3602 6.66489 9.4301 6.5877C9.49999 6.51051 9.59173 6.45665 9.693 6.43335C9.71834 6.40705 9.7511 6.38919 9.78687 6.38219C9.82264 6.37519 9.85968 6.37938 9.893 6.39419H13.174C13.6 6.38008 14.0242 6.45471 14.4201 6.61336C14.8159 6.77201 15.1748 7.01125 15.474 7.31602ZM15.435 9.64972C15.4247 9.06018 15.1866 8.49774 14.771 8.0812C14.5732 7.87779 14.3361 7.71718 14.0741 7.60924C13.8122 7.50131 13.5311 7.44834 13.248 7.4536H10.318V12.2003L13.248 12.1612C13.8214 12.14 14.3656 11.9019 14.7715 11.4945C15.1773 11.0872 15.4147 10.5408 15.436 9.96504L15.435 9.64972Z" fill="#77DADA"/>
</svg>
