<svg width="24" height="24" viewBox="0 0 24 24" fill="none" xmlns="http://www.w3.org/2000/svg">
<path fill-rule="evenodd" clip-rule="evenodd" d="M22 15.7711V15.812C21.9188 17.2871 20.9295 18.6668 19.0321 19.951C16.927 21.2896 14.4889 22 12 22C9.5111 22 7.07306 21.2896 4.9679 19.951C3.07117 18.6668 2.08186 17.2871 2 15.812V15.6893C2.16234 14.6786 3.3615 13.9819 5.59748 13.5993C7.71114 13.2271 9.85389 13.0487 11.9995 13.0664H13.4231L13.626 12.8565C13.7342 12.7474 13.9375 12.5288 14.2358 12.2008L14.9268 11.5042C15.8033 10.5694 16.7935 9.7502 17.8739 9.0659C18.6182 8.55548 19.4762 8.23867 20.3714 8.14368C20.5664 8.1324 20.7616 8.16315 20.9439 8.23388C21.1262 8.30462 21.2915 8.41372 21.4287 8.5539C21.6611 8.88624 21.7959 9.27794 21.8174 9.68401C21.8389 10.0901 21.7464 10.494 21.5505 10.8495C21.0896 11.9667 20.4575 13.0041 19.6773 13.9235C21.1675 14.3886 21.9265 14.9762 21.9542 15.6861C21.9272 15.7134 21.9397 15.7417 21.9948 15.7679L22 15.7711ZM12.7113 15.791C12.577 16.0134 12.4944 16.2635 12.4697 16.5226C12.4451 16.7817 12.4789 17.0431 12.5687 17.2871C13.3825 17.2871 14.1401 17.2599 14.8456 17.2053C15.4681 16.8119 16.0411 16.3441 16.5523 15.812L17.8531 14.5006C18.8558 13.5275 19.6989 12.3999 20.3506 11.16C20.8244 10.1633 20.9396 9.52823 20.6961 9.25475C20.6643 9.1994 20.6144 9.1569 20.555 9.13451C20.4956 9.11213 20.4304 9.11123 20.3704 9.13199C19.668 9.21932 18.9978 9.47985 18.4192 9.89054C17.3869 10.5512 16.4324 11.3281 15.5741 12.206L14.8831 12.9027C14.5841 13.2307 14.3808 13.4629 14.2733 13.5993C13.6401 14.2413 13.1128 14.9812 12.7113 15.791ZM5.2114 16.6723C7.27213 17.0909 9.36977 17.2969 11.4719 17.2871C11.398 16.855 11.4338 16.4111 11.5759 15.9967C11.8065 15.2998 12.1424 14.6429 12.5718 14.0494H11.9183C9.70111 14.0137 7.48659 14.2198 5.31338 14.6642C3.7545 15.0475 2.94801 15.3892 2.8939 15.6893C2.97576 15.99 3.74827 16.3177 5.2114 16.6723ZM17.366 19.7663C18.6425 19.1933 19.7391 18.279 20.5369 17.1224C19.2837 17.6072 17.9708 17.9174 16.6345 18.0446C15.1772 18.2172 13.7113 18.3062 12.244 18.3111H11.9183C10.5634 18.3111 9.07183 18.2293 7.44358 18.0656C6.037 17.9529 4.65412 17.6349 3.33825 17.1214C4.13549 18.2784 5.23221 19.1929 6.50907 19.7652C8.19582 20.5839 10.0432 21.0109 11.9152 21.0148C13.8019 21.0146 15.6645 20.588 17.366 19.7663ZM19.8251 16.3649C20.0481 16.3396 20.2619 16.2613 20.4491 16.1366C20.6364 16.0119 20.7916 15.8442 20.9021 15.6473C20.8464 15.5193 20.745 15.417 20.618 15.3609C20.1346 15.092 19.6136 14.8985 19.0727 14.787L18.9509 14.7051C18.8333 14.9074 18.6819 15.0878 18.5035 15.2381L17.2027 16.5496C16.9862 16.7412 16.8104 16.8916 16.6751 17.0007C17.7445 16.9024 18.8005 16.6893 19.8251 16.3649ZM5.33316 12.0413C5.08081 11.7776 4.88267 11.4662 4.75016 11.125C4.61764 10.7838 4.55336 10.4195 4.56101 10.0532C4.55223 9.6898 4.61607 9.32839 4.74873 8.99043C4.88138 8.65247 5.08014 8.34488 5.33316 8.08598C5.84753 7.57399 6.54125 7.2869 7.26407 7.2869C7.98688 7.2869 8.6806 7.57399 9.19497 8.08598C9.69128 8.62694 9.96695 9.33672 9.96695 10.0736C9.96695 10.8105 9.69128 11.5203 9.19497 12.0613C8.94267 12.3239 8.63886 12.5306 8.30291 12.6682C7.96696 12.8059 7.60625 12.8714 7.24377 12.8607C6.88592 12.8682 6.53056 12.7991 6.2012 12.6578C5.87183 12.5166 5.57597 12.3064 5.33316 12.0413ZM6.00436 8.80361C5.83724 8.96416 5.70555 9.15842 5.61787 9.37372C5.53019 9.58902 5.48849 9.82052 5.49549 10.0532C5.48843 10.5406 5.67111 11.0114 6.00436 11.3646C6.16405 11.5354 6.35607 11.6723 6.56908 11.7671C6.78209 11.8619 7.01177 11.9127 7.24457 11.9165C7.47737 11.9203 7.70857 11.877 7.92451 11.7893C8.14046 11.7015 8.3368 11.571 8.5019 11.4055C8.81618 11.0501 8.98986 10.5907 8.98986 10.1145C8.98986 9.63841 8.81618 9.17892 8.5019 8.82354C8.17036 8.47923 7.71756 8.28057 7.24169 8.27063C6.77926 8.28912 6.33982 8.47888 6.00749 8.80361H6.00436ZM9.68302 7.55405C9.3165 7.14335 9.1137 6.61042 9.1137 6.05795C9.1137 5.50548 9.3165 4.97255 9.68302 4.56184C9.87224 4.36533 10.1002 4.21097 10.3522 4.10869C10.6042 4.00641 10.8747 3.95849 11.1462 3.96802C11.4184 3.96802 11.6879 4.02208 11.9394 4.1271C12.1909 4.23213 12.4195 4.38608 12.612 4.58015C12.8044 4.77421 12.9571 5.0046 13.0613 5.25817C13.1655 5.51173 13.2191 5.7835 13.2191 6.05795C13.2191 6.3324 13.1655 6.60417 13.0613 6.85773C12.9571 7.11129 12.8044 7.34168 12.612 7.53575C12.4195 7.72982 12.1909 7.88376 11.9394 7.98879C11.6879 8.09382 11.4184 8.14788 11.1462 8.14788C10.8746 8.1576 10.6041 8.10977 10.3521 8.00748C10.1001 7.90519 9.87213 7.75072 9.68302 7.55405ZM10.374 5.32039C10.2656 5.41743 10.18 5.53771 10.1237 5.67242C10.0673 5.80712 10.0415 5.95283 10.0483 6.09887C10.0427 6.24785 10.0689 6.39631 10.1251 6.53422C10.1813 6.67213 10.2662 6.79629 10.374 6.89833C10.5834 7.09585 10.8594 7.20574 11.1462 7.20574C11.4329 7.20574 11.7089 7.09585 11.9183 6.89833C12.0214 6.79706 12.1033 6.676 12.1593 6.5423C12.2152 6.4086 12.244 6.26496 12.244 6.11985C12.244 5.97474 12.2152 5.8311 12.1593 5.6974C12.1033 5.5637 12.0214 5.44264 11.9183 5.34137C11.7081 5.13954 11.4355 5.01658 11.1462 4.99305C10.8619 5.01598 10.5925 5.13078 10.3782 5.32039H10.374ZM6.32905 4.93115C6.17364 4.77239 6.05202 4.58329 5.97167 4.37546C5.89132 4.16763 5.85394 3.94544 5.8618 3.72251C5.85511 3.49658 5.89297 3.27156 5.97318 3.06048C6.05338 2.84941 6.17435 2.65649 6.32905 2.4929C6.48011 2.33177 6.66322 2.20465 6.86641 2.11985C7.0696 2.03505 7.28827 1.9945 7.50809 2.00084C7.72496 1.99355 7.94081 2.03377 8.14077 2.11872C8.34073 2.20367 8.52002 2.33133 8.66631 2.4929C8.96521 2.82208 9.12565 3.25541 9.11379 3.70153C9.12343 4.03085 9.03519 4.35555 8.86043 4.63394C8.68567 4.91233 8.43237 5.13169 8.13304 5.26387C7.8337 5.39604 7.50201 5.43498 7.18056 5.3757C6.85911 5.31641 6.56259 5.1616 6.32905 4.93115ZM7.02004 3.23046C6.9593 3.29982 6.91351 3.38114 6.88556 3.46927C6.85762 3.55741 6.84813 3.65043 6.85769 3.74245C6.86498 3.93155 6.93663 4.11235 7.06061 4.25444C7.11638 4.3188 7.18517 4.37038 7.26235 4.40572C7.33953 4.44107 7.42332 4.45935 7.50809 4.45935C7.59286 4.45935 7.67665 4.44107 7.75383 4.40572C7.83101 4.37038 7.89978 4.3188 7.95556 4.25444C8.0771 4.11869 8.14874 3.94499 8.15849 3.76238C8.16705 3.67348 8.15701 3.58376 8.12905 3.499C8.10109 3.41425 8.05581 3.33635 7.99614 3.27033C7.87472 3.13454 7.70886 3.04738 7.52891 3.02482C7.43435 3.01961 7.33979 3.03532 7.25189 3.07084C7.16398 3.10637 7.08485 3.16084 7.02004 3.23046Z" fill="#77DADA"/>
</svg>
